<svg width="22" height="17" viewBox="0 0 22 17" fill="none" xmlns="http://www.w3.org/2000/svg">
<g filter="url(#filter0_d_85_374)">
<path d="M11 14C14.866 14 18 10.866 18 7C18 3.13401 14.866 0 11 0C7.13401 0 4 3.13401 4 7C4 10.866 7.13401 14 11 14Z" fill="white"/>
<path d="M8.7384 7.5117L9.5689 9.81038C9.5689 9.81038 9.67273 10.0255 9.78391 10.0255C9.8951 10.0255 11.5488 8.30509 11.5488 8.30509L13.3877 4.75317L8.76804 6.91833L8.7384 7.5117Z" fill="#57355F"/>
<path d="M9.83946 8.1012L9.68004 9.79555C9.68004 9.79555 9.6133 10.3147 10.1324 9.79555C10.6514 9.27638 11.1482 8.87604 11.1482 8.87604" fill="#550667"/>
<path d="M8.75337 7.59367L7.04502 7.03706C7.04502 7.03706 6.84086 6.95422 6.9066 6.76639C6.92013 6.72766 6.94743 6.6947 7.0291 6.63806C7.40762 6.37421 14.0353 3.99205 14.0353 3.99205C14.0353 3.99205 14.2224 3.929 14.3328 3.97094C14.3601 3.97939 14.3847 3.99494 14.404 4.016C14.4233 4.03707 14.4367 4.06288 14.4427 4.09081C14.4547 4.14014 14.4597 4.1909 14.4576 4.2416C14.457 4.28547 14.4517 4.32613 14.4477 4.38989C14.4073 5.04118 13.1994 9.90198 13.1994 9.90198C13.1994 9.90198 13.1271 10.1864 12.8681 10.1962C12.8045 10.1982 12.7411 10.1874 12.6817 10.1645C12.6224 10.1415 12.5682 10.1068 12.5225 10.0625C12.0144 9.62536 10.2581 8.44505 9.86999 8.18546C9.86124 8.1795 9.85386 8.17173 9.84837 8.16267C9.84288 8.15361 9.83939 8.14348 9.83814 8.13296C9.83272 8.10561 9.86247 8.07171 9.86247 8.07171C9.86247 8.07171 12.9207 5.35338 13.002 5.06801C13.0083 5.0459 12.9845 5.035 12.9526 5.04468C12.7494 5.11941 9.22832 7.34301 8.83971 7.58842C8.81173 7.59689 8.78217 7.59868 8.75337 7.59367Z" fill="#550667"/>
</g>
</svg>
