<svg width="15" height="14" viewBox="0 0 15 14" fill="none" xmlns="http://www.w3.org/2000/svg">
<path d="M3.37533 12.0288L2.37659 0.713898H13.3461L12.3462 12.0297L7.85868 13.2861L3.37533 12.0288Z" fill="white"/>
<path d="M7.86133 1.63876V12.325L11.49 11.3091L12.3449 1.63876H7.86133Z" fill="#F6F4EE"/>
<path d="M4.42004 3.02664L4.79041 7.22327H9.55278L9.39296 9.02328L7.85958 9.44199L6.32911 9.02389L6.22679 7.86811H4.84758L5.0448 10.0961L7.85926 10.8856L10.6773 10.0961L11.0551 5.83568H6.0471L5.92136 4.41453H11.1754H11.1796L11.3027 3.02664H4.42004Z" fill="#550667"/>
<path d="M7.86135 3.02664H4.42004L4.79041 7.22327H7.86135V5.83568H6.0471L5.92136 4.41453H7.86135V3.02664Z" fill="#550667"/>
<path d="M7.86131 9.44138L7.85954 9.44198L6.32907 9.02388L6.22674 7.8681H4.84753L5.04475 10.0961L7.85921 10.8856L7.86131 10.885V9.44138Z" fill="#550667"/>
</svg>
