<svg width="51" height="35" viewBox="0 0 51 35" fill="none" xmlns="http://www.w3.org/2000/svg">
<path d="M40.1648 16.9966C40.1648 15.1335 37.7113 13.3679 33.9499 12.2731C34.8179 8.62725 34.4321 5.72665 32.7322 4.798C32.3404 4.58017 31.8822 4.47698 31.3819 4.47698V5.75531C31.6592 5.75531 31.8822 5.8069 32.0691 5.90435C32.8889 6.35148 33.2446 8.054 32.9673 10.2438C32.901 10.7826 32.7925 11.3501 32.6599 11.9291C31.4784 11.654 30.1884 11.4419 28.8321 11.3043C28.0183 10.2438 27.1744 9.28074 26.3244 8.43808C28.2895 6.70116 30.1341 5.74958 31.3879 5.74958V4.47125C29.7302 4.47125 27.5601 5.5948 25.3659 7.54382C23.1717 5.60627 21.0017 4.49418 19.3439 4.49418V5.77251C20.5917 5.77251 22.4424 6.71835 24.4075 8.44381C23.5636 9.28647 22.7196 10.2438 21.9179 11.3043C20.5556 11.4419 19.2656 11.654 18.0841 11.9348C17.9454 11.3616 17.843 10.8056 17.7706 10.2724C17.4873 8.08267 17.8369 6.38014 18.6507 5.92728C18.8316 5.8241 19.0667 5.77824 19.3439 5.77824V4.49991C18.8376 4.49991 18.3795 4.6031 17.9816 4.82093C16.2877 5.74958 15.908 8.64444 16.782 12.2788C13.0326 13.3794 10.5912 15.1393 10.5912 16.9966C10.5912 18.8596 13.0447 20.6252 16.8061 21.7201C15.9381 25.3659 16.3239 28.2665 18.0238 29.1951C18.4156 29.4129 18.8738 29.5161 19.3801 29.5161C21.0378 29.5161 23.2079 28.3926 25.4021 26.4436C27.5963 28.3811 29.7664 29.4932 31.4241 29.4932C31.9305 29.4932 32.3886 29.39 32.7864 29.1722C34.4803 28.2435 34.8601 25.3487 33.986 21.7143C37.7234 20.6194 40.1648 18.8539 40.1648 16.9966ZM32.3163 13.173C32.0932 13.9125 31.8159 14.6749 31.5025 15.4373C31.2553 14.9787 30.9961 14.5202 30.7128 14.0616C30.4355 13.603 30.1401 13.1558 29.8448 12.7202C30.7008 12.8406 31.5266 12.9896 32.3163 13.173ZM29.5554 19.278C29.0852 20.0519 28.603 20.7857 28.1027 21.4678C27.2045 21.5423 26.2943 21.5825 25.378 21.5825C24.4678 21.5825 23.5575 21.5423 22.6654 21.4736C22.1651 20.7914 21.6768 20.0634 21.2066 19.2952C20.7485 18.5443 20.3325 17.7819 19.9528 17.0138C20.3265 16.2456 20.7485 15.4775 21.2006 14.7265C21.6708 13.9526 22.153 13.2189 22.6533 12.5367C23.5515 12.4622 24.4617 12.4221 25.378 12.4221C26.2882 12.4221 27.1985 12.4622 28.0906 12.531C28.5909 13.2132 29.0792 13.9412 29.5494 14.7093C30.0075 15.4603 30.4235 16.2227 30.8032 16.9908C30.4235 17.759 30.0075 18.5271 29.5554 19.278ZM31.5025 18.5328C31.828 19.301 32.1053 20.0691 32.3343 20.8143C31.5447 20.9978 30.7128 21.1525 29.8508 21.2729C30.1462 20.8315 30.4415 20.3787 30.7188 19.9143C30.9961 19.4558 31.2553 18.9914 31.5025 18.5328ZM25.3901 24.6493C24.8295 24.099 24.2688 23.4856 23.7143 22.8149C24.2568 22.8379 24.8114 22.8551 25.372 22.8551C25.9386 22.8551 26.4992 22.8436 27.0478 22.8149C26.5052 23.4856 25.9446 24.099 25.3901 24.6493ZM20.9052 21.2729C20.0492 21.1525 19.2234 21.0035 18.4337 20.8201C18.6567 20.0806 18.934 19.3182 19.2475 18.5558C19.4946 19.0144 19.7539 19.473 20.0372 19.9315C20.3205 20.3901 20.6098 20.8373 20.9052 21.2729ZM25.3599 9.3438C25.9205 9.89411 26.4811 10.5075 27.0357 11.1782C26.4932 11.1552 25.9386 11.138 25.378 11.138C24.8114 11.138 24.2508 11.1495 23.7022 11.1782C24.2447 10.5075 24.8053 9.89411 25.3599 9.3438ZM20.8992 12.7202C20.6038 13.1616 20.3084 13.6144 20.0311 14.0788C19.7538 14.5374 19.4946 14.9959 19.2475 15.4545C18.922 14.6864 18.6447 13.9183 18.4156 13.173C19.2053 12.9953 20.0372 12.8406 20.8992 12.7202ZM15.4438 19.8972C13.3099 19.0316 11.9295 17.8965 11.9295 16.9966C11.9295 16.0966 13.3099 14.9558 15.4438 14.096C15.9622 13.8839 16.5289 13.6947 17.1136 13.517C17.4572 14.6405 17.9093 15.8099 18.4699 17.008C17.9153 18.2004 17.4692 19.364 17.1317 20.4819C16.5349 20.3041 15.9682 20.1092 15.4438 19.8972ZM18.6869 28.0888C17.8671 27.6416 17.5114 25.9391 17.7887 23.7493C17.855 23.2105 17.9635 22.643 18.0961 22.064C19.2776 22.3392 20.5676 22.5513 21.9239 22.6888C22.7377 23.7493 23.5816 24.7124 24.4316 25.555C22.4665 27.2919 20.6219 28.2435 19.3681 28.2435C19.0968 28.2378 18.8677 28.1862 18.6869 28.0888ZM32.9854 23.7207C33.2687 25.9104 32.9191 27.613 32.1053 28.0658C31.9244 28.169 31.6893 28.2149 31.4121 28.2149C30.1643 28.2149 28.3137 27.269 26.3485 25.5436C27.1924 24.7009 28.0364 23.7436 28.8381 22.6831C30.2004 22.5455 31.4904 22.3334 32.6719 22.0525C32.8106 22.6315 32.9191 23.1875 32.9854 23.7207ZM35.3062 19.8972C34.7878 20.1092 34.2211 20.2984 33.6364 20.4761C33.2928 19.3526 32.8407 18.1832 32.2801 16.9851C32.8347 15.7927 33.2807 14.6291 33.6183 13.5113C34.2151 13.689 34.7817 13.8839 35.3122 14.096C37.4461 14.9616 38.8265 16.0966 38.8265 16.9966C38.8205 17.8965 37.4401 19.0373 35.3062 19.8972Z" fill="white"/>
<path d="M25.372 19.6163C26.8934 19.6163 28.1268 18.4434 28.1268 16.9966C28.1268 15.5498 26.8934 14.3769 25.372 14.3769C23.8506 14.3769 22.6172 15.5498 22.6172 16.9966C22.6172 18.4434 23.8506 19.6163 25.372 19.6163Z" fill="white"/>
</svg>
